<svg width="200" height="25" viewBox="0 0 200 25" fill="none" xmlns="http://www.w3.org/2000/svg">
<path d="M12.8672 19L11.1914 14.2422H4.64062L2.96484 19H0L6.375 1.79688H9.49219L15.8555 19H12.8672ZM10.4648 11.8281L8.83594 7.14062C8.77344 6.9375 8.68359 6.65234 8.56641 6.28516C8.44922 5.91016 8.33203 5.53125 8.21484 5.14844C8.09766 4.75781 8 4.42969 7.92188 4.16406C7.84375 4.48438 7.74609 4.84375 7.62891 5.24219C7.51953 5.63281 7.41016 6 7.30078 6.34375C7.19922 6.6875 7.12109 6.95312 7.06641 7.14062L5.42578 11.8281H10.4648ZM25.7977 5.78125C27.2586 5.78125 28.3953 6.16016 29.2078 6.91797C30.0281 7.66797 30.4383 8.875 30.4383 10.5391V19H27.6844V11.0547C27.6844 10.0469 27.4773 9.29297 27.0633 8.79297C26.6492 8.28516 26.0086 8.03125 25.1414 8.03125C23.8836 8.03125 23.0086 8.41797 22.5164 9.19141C22.032 9.96484 21.7898 11.0859 21.7898 12.5547V19H19.0359V6.02734H21.1805L21.5672 7.78516H21.7195C22.0008 7.33203 22.3484 6.96094 22.7625 6.67188C23.1844 6.375 23.6531 6.15234 24.1688 6.00391C24.6922 5.85547 25.2352 5.78125 25.7977 5.78125ZM38.2477 6.02734V19H35.4938V6.02734H38.2477ZM36.8883 1.05859C37.3102 1.05859 37.6734 1.17188 37.9781 1.39844C38.2906 1.625 38.4469 2.01562 38.4469 2.57031C38.4469 3.11719 38.2906 3.50781 37.9781 3.74219C37.6734 3.96875 37.3102 4.08203 36.8883 4.08203C36.4508 4.08203 36.0797 3.96875 35.775 3.74219C35.4781 3.50781 35.3297 3.11719 35.3297 2.57031C35.3297 2.01562 35.4781 1.625 35.775 1.39844C36.0797 1.17188 36.4508 1.05859 36.8883 1.05859ZM58.057 5.78125C59.5102 5.78125 60.6039 6.15625 61.3383 6.90625C62.0805 7.65625 62.4516 8.85938 62.4516 10.5156V19H59.6977V11.0078C59.6977 10.0234 59.5062 9.28125 59.1234 8.78125C58.7406 8.28125 58.1586 8.03125 57.3773 8.03125C56.2836 8.03125 55.4945 8.38281 55.0102 9.08594C54.5336 9.78125 54.2953 10.793 54.2953 12.1211V19H51.5414V11.0078C51.5414 10.3516 51.4555 9.80469 51.2836 9.36719C51.1195 8.92188 50.8656 8.58984 50.5219 8.37109C50.1781 8.14453 49.7445 8.03125 49.2211 8.03125C48.4633 8.03125 47.8578 8.20312 47.4047 8.54688C46.9594 8.89062 46.6391 9.39844 46.4437 10.0703C46.2484 10.7344 46.1508 11.5508 46.1508 12.5195V19H43.3969V6.02734H45.5414L45.9281 7.77344H46.0805C46.3461 7.32031 46.6742 6.94922 47.0648 6.66016C47.4633 6.36328 47.9047 6.14453 48.3891 6.00391C48.8734 5.85547 49.3773 5.78125 49.9008 5.78125C50.8695 5.78125 51.6859 5.95312 52.35 6.29688C53.0141 6.63281 53.5102 7.14844 53.8383 7.84375H54.0492C54.4555 7.14062 55.0219 6.62109 55.7484 6.28516C56.475 5.94922 57.2445 5.78125 58.057 5.78125ZM72.6633 5.78125C73.8195 5.78125 74.8117 6.01953 75.6398 6.49609C76.468 6.97266 77.1047 7.64844 77.55 8.52344C77.9953 9.39844 78.218 10.4453 78.218 11.6641V13.1406H69.5578C69.5891 14.3984 69.925 15.3672 70.5656 16.0469C71.2141 16.7266 72.1203 17.0664 73.2844 17.0664C74.1125 17.0664 74.8547 16.9883 75.5109 16.832C76.175 16.668 76.8586 16.4297 77.5617 16.1172V18.3555C76.9133 18.6602 76.2531 18.8828 75.5813 19.0234C74.9094 19.1641 74.1047 19.2344 73.1672 19.2344C71.8938 19.2344 70.7727 18.9883 69.8039 18.4961C68.843 17.9961 68.0891 17.2539 67.5422 16.2695C67.0031 15.2852 66.7336 14.0625 66.7336 12.6016C66.7336 11.1484 66.9797 9.91406 67.4719 8.89844C67.9641 7.88281 68.6555 7.10938 69.5461 6.57812C70.4367 6.04688 71.4758 5.78125 72.6633 5.78125ZM72.6633 7.85547C71.7961 7.85547 71.093 8.13672 70.5539 8.69922C70.0227 9.26172 69.7102 10.0859 69.6164 11.1719H75.5227C75.5148 10.5234 75.4055 9.94922 75.1945 9.44922C74.9914 8.94922 74.6789 8.55859 74.257 8.27734C73.843 7.99609 73.3117 7.85547 72.6633 7.85547ZM98.6766 15.2969C98.6766 16.1484 98.4695 16.8672 98.0555 17.4531C97.6414 18.0391 97.0359 18.4844 96.2391 18.7891C95.45 19.0859 94.4812 19.2344 93.3328 19.2344C92.4266 19.2344 91.6453 19.168 90.9891 19.0352C90.3406 18.9102 89.7273 18.7148 89.1492 18.4492V16.0703C89.7664 16.3594 90.4578 16.6094 91.2234 16.8203C91.9969 17.0312 92.7273 17.1367 93.4148 17.1367C94.3211 17.1367 94.9734 16.9961 95.3719 16.7148C95.7703 16.4258 95.9695 16.043 95.9695 15.5664C95.9695 15.2852 95.8875 15.0352 95.7234 14.8164C95.5672 14.5898 95.2703 14.3594 94.8328 14.125C94.4031 13.8828 93.7703 13.5938 92.9344 13.2578C92.1141 12.9297 91.4227 12.6016 90.8602 12.2734C90.2977 11.9453 89.8719 11.5508 89.5828 11.0898C89.2937 10.6211 89.1492 10.0234 89.1492 9.29688C89.1492 8.14844 89.6023 7.27734 90.5086 6.68359C91.4227 6.08203 92.6297 5.78125 94.1297 5.78125C94.9266 5.78125 95.6766 5.86328 96.3797 6.02734C97.0906 6.18359 97.7859 6.41406 98.4656 6.71875L97.5984 8.79297C97.0125 8.53516 96.4227 8.32422 95.8289 8.16016C95.243 7.98828 94.6453 7.90234 94.0359 7.90234C93.325 7.90234 92.782 8.01172 92.407 8.23047C92.0398 8.44922 91.8562 8.76172 91.8562 9.16797C91.8562 9.47266 91.9461 9.73047 92.1258 9.94141C92.3055 10.1523 92.6141 10.3633 93.0516 10.5742C93.4969 10.7852 94.1141 11.0469 94.9031 11.3594C95.6766 11.6562 96.3445 11.9688 96.907 12.2969C97.4773 12.6172 97.9148 13.0117 98.2195 13.4805C98.5242 13.9492 98.6766 14.5547 98.6766 15.2969ZM105.607 0.765625V5.34766C105.607 5.82422 105.591 6.28906 105.56 6.74219C105.537 7.19531 105.509 7.54688 105.478 7.79688H105.63C105.904 7.34375 106.24 6.97266 106.638 6.68359C107.037 6.38672 107.482 6.16406 107.974 6.01562C108.474 5.86719 109.005 5.79297 109.568 5.79297C110.56 5.79297 111.404 5.96094 112.099 6.29688C112.795 6.625 113.326 7.13672 113.693 7.83203C114.068 8.52734 114.255 9.42969 114.255 10.5391V19H111.502V11.0547C111.502 10.0469 111.295 9.29297 110.88 8.79297C110.466 8.28516 109.826 8.03125 108.959 8.03125C108.123 8.03125 107.459 8.20703 106.966 8.55859C106.482 8.90234 106.134 9.41406 105.923 10.0938C105.713 10.7656 105.607 11.5859 105.607 12.5547V19H102.853V0.765625H105.607ZM130.795 12.4844C130.795 13.5625 130.655 14.5195 130.373 15.3555C130.092 16.1914 129.682 16.8984 129.143 17.4766C128.604 18.0469 127.955 18.4844 127.198 18.7891C126.44 19.0859 125.584 19.2344 124.631 19.2344C123.741 19.2344 122.924 19.0859 122.182 18.7891C121.44 18.4844 120.795 18.0469 120.248 17.4766C119.709 16.8984 119.291 16.1914 118.995 15.3555C118.698 14.5195 118.549 13.5625 118.549 12.4844C118.549 11.0547 118.795 9.84375 119.287 8.85156C119.787 7.85156 120.498 7.08984 121.42 6.56641C122.342 6.04297 123.44 5.78125 124.713 5.78125C125.909 5.78125 126.963 6.04297 127.877 6.56641C128.791 7.08984 129.506 7.85156 130.022 8.85156C130.537 9.85156 130.795 11.0625 130.795 12.4844ZM121.385 12.4844C121.385 13.4297 121.498 14.2383 121.725 14.9102C121.959 15.582 122.319 16.0977 122.803 16.457C123.287 16.8086 123.912 16.9844 124.678 16.9844C125.444 16.9844 126.069 16.8086 126.553 16.457C127.037 16.0977 127.393 15.582 127.62 14.9102C127.846 14.2383 127.959 13.4297 127.959 12.4844C127.959 11.5391 127.846 10.7383 127.62 10.082C127.393 9.41797 127.037 8.91406 126.553 8.57031C126.069 8.21875 125.44 8.04297 124.666 8.04297C123.526 8.04297 122.694 8.42578 122.17 9.19141C121.647 9.95703 121.385 11.0547 121.385 12.4844ZM141.816 5.78125C143.355 5.78125 144.589 6.34375 145.519 7.46875C146.456 8.59375 146.925 10.2656 146.925 12.4844C146.925 13.9531 146.706 15.1914 146.269 16.1992C145.839 17.1992 145.234 17.957 144.452 18.4727C143.679 18.9805 142.777 19.2344 141.745 19.2344C141.089 19.2344 140.519 19.1484 140.034 18.9766C139.55 18.8047 139.136 18.582 138.792 18.3086C138.448 18.0273 138.159 17.7227 137.925 17.3945H137.761C137.8 17.707 137.835 18.0547 137.866 18.4375C137.905 18.8125 137.925 19.1562 137.925 19.4688V24.7539H135.159V6.02734H137.409L137.796 7.82031H137.925C138.167 7.45312 138.46 7.11328 138.804 6.80078C139.155 6.48828 139.577 6.24219 140.07 6.0625C140.57 5.875 141.152 5.78125 141.816 5.78125ZM141.077 8.03125C140.32 8.03125 139.71 8.18359 139.249 8.48828C138.796 8.78516 138.464 9.23438 138.253 9.83594C138.05 10.4375 137.941 11.1914 137.925 12.0977V12.4844C137.925 13.4453 138.023 14.2617 138.218 14.9336C138.421 15.5977 138.753 16.1055 139.214 16.457C139.683 16.8008 140.316 16.9727 141.113 16.9727C141.784 16.9727 142.339 16.7891 142.777 16.4219C143.222 16.0547 143.554 15.5312 143.773 14.8516C143.991 14.1719 144.101 13.3711 144.101 12.4492C144.101 11.0508 143.851 9.96484 143.351 9.19141C142.859 8.41797 142.101 8.03125 141.077 8.03125ZM163.845 1.86719C165.321 1.86719 166.54 2.04688 167.501 2.40625C168.47 2.76562 169.188 3.3125 169.657 4.04688C170.134 4.78125 170.372 5.71484 170.372 6.84766C170.372 7.69141 170.216 8.41016 169.903 9.00391C169.591 9.59766 169.18 10.0898 168.673 10.4805C168.165 10.8711 167.622 11.1836 167.044 11.418L171.907 19H168.731L164.595 12.1328H161.841V19H159.028V1.86719H163.845ZM163.657 4.21094H161.841V9.8125H163.786C165.091 9.8125 166.036 9.57031 166.622 9.08594C167.216 8.60156 167.512 7.88672 167.512 6.94141C167.512 5.94922 167.196 5.24609 166.563 4.83203C165.938 4.41797 164.97 4.21094 163.657 4.21094ZM175.556 19V1.86719H178.369V19H175.556ZM199.303 10.4102C199.303 11.7305 199.135 12.9336 198.799 14.0195C198.471 15.0977 197.975 16.0273 197.311 16.8086C196.647 17.582 195.815 18.1797 194.815 18.6016C193.815 19.0234 192.643 19.2344 191.299 19.2344C189.932 19.2344 188.745 19.0234 187.737 18.6016C186.737 18.1797 185.905 17.5781 185.241 16.7969C184.584 16.0156 184.092 15.082 183.764 13.9961C183.436 12.9102 183.272 11.707 183.272 10.3867C183.272 8.62109 183.561 7.08203 184.139 5.76953C184.725 4.44922 185.612 3.42578 186.799 2.69922C187.995 1.96484 189.502 1.59766 191.323 1.59766C193.104 1.59766 194.584 1.96094 195.764 2.6875C196.944 3.41406 197.827 4.4375 198.413 5.75781C199.006 7.07031 199.303 8.62109 199.303 10.4102ZM186.225 10.4102C186.225 11.7305 186.405 12.875 186.764 13.8438C187.123 14.8047 187.674 15.5469 188.416 16.0703C189.166 16.5859 190.127 16.8438 191.299 16.8438C192.479 16.8438 193.44 16.5859 194.182 16.0703C194.924 15.5469 195.471 14.8047 195.823 13.8438C196.174 12.875 196.35 11.7305 196.35 10.4102C196.35 8.40234 195.948 6.83203 195.143 5.69922C194.346 4.55859 193.073 3.98828 191.323 3.98828C190.151 3.98828 189.186 4.24609 188.428 4.76172C187.678 5.27734 187.123 6.01562 186.764 6.97656C186.405 7.92969 186.225 9.07422 186.225 10.4102Z" fill="black"/>
</svg>
