<svg width="111" height="49" viewBox="0 0 111 49" fill="none" xmlns="http://www.w3.org/2000/svg">
<path d="M106.114 0H4.88641C2.18772 0 0 2.19715 0 4.90748V43.5614C0 46.2717 2.18772 48.4689 4.88641 48.4689H106.114C108.812 48.4689 111 46.2717 111 43.5614V4.90748C111 2.19715 108.812 0 106.114 0Z" fill="#1D1D1B"/>
<path d="M8.82565 24.7494H8.28271V5.59814H9.21174L16.8973 24.0406L24.5828 5.59814H25.4576V24.7555H24.9146V6.80987C24.9146 6.68264 24.7397 6.64628 24.6914 6.76746L17.2049 24.7555H16.6077L8.89804 6.29489C8.87994 6.25247 8.81962 6.26459 8.81962 6.31306V24.7494H8.82565Z" fill="white" stroke="white" stroke-width="0.5" stroke-miterlimit="10"/>
<path d="M45.691 24.7494L45.5523 21.1384C44.6232 23.6285 42.6083 25.1613 40.1832 25.1613C36.7205 25.1613 34.1084 22.0715 34.1084 17.9395C34.1084 13.8075 36.7266 10.6631 40.1832 10.6631C42.6083 10.6631 44.6232 12.1959 45.5523 14.686L45.691 11.0751H46.1012V24.7554H45.691V24.7494ZM40.1893 24.61C43.3504 24.61 45.5583 21.8473 45.5583 17.9334C45.5583 14.0196 43.3262 11.2023 40.1893 11.2023C37.0523 11.2023 34.6574 14.0498 34.6574 17.9334C34.6574 21.817 37.0282 24.61 40.1893 24.61Z" fill="white" stroke="white" stroke-width="0.5" stroke-miterlimit="10"/>
<path d="M61.2791 10.6572C64.9289 10.6572 67.5168 13.6684 67.5168 17.9336C67.5168 22.1989 64.9289 25.1555 61.2791 25.1555C57.6294 25.1555 55.0957 22.0656 55.0957 17.9336C55.0957 13.8016 57.7139 10.6572 61.2791 10.6572ZM61.2791 24.6163C64.6574 24.6163 66.9739 21.8778 66.9739 17.9397C66.9739 14.0016 64.6333 11.2086 61.2791 11.2086C57.925 11.2086 55.6386 14.0803 55.6386 17.9397C55.6386 21.799 58.0637 24.6163 61.2791 24.6163Z" fill="white" stroke="white" stroke-width="0.5" stroke-miterlimit="10"/>
<path d="M83.4852 11.2086C79.3951 11.2086 77.0544 14.7104 77.0544 20.866V24.7496H76.5115V11.0692H76.9217L77.0604 16.2675C78.0438 12.6566 80.2758 10.6572 83.4912 10.6572V11.2025L83.4852 11.2086Z" fill="white" stroke="white" stroke-width="0.5" stroke-miterlimit="10"/>
<path d="M96.6724 10.6572C100.322 10.6572 102.91 13.6684 102.91 17.9336C102.91 22.1989 100.322 25.1555 96.6724 25.1555C93.0227 25.1555 90.489 22.0656 90.489 17.9336C90.489 13.8016 93.1072 10.6572 96.6724 10.6572ZM96.6724 24.6163C100.051 24.6163 102.367 21.8778 102.367 17.9397C102.367 14.0016 100.027 11.2086 96.6724 11.2086C93.3183 11.2086 91.0319 14.0803 91.0319 17.9397C91.0319 21.799 93.4571 24.6163 96.6724 24.6163Z" fill="white" stroke="white" stroke-width="0.5" stroke-miterlimit="10"/>
<path d="M11.3775 40.0355C9.62807 40.0355 8.37932 39.3508 8.18628 37.7756H8.51204C8.74128 39.0782 9.67633 39.7083 11.3775 39.7083C12.6745 39.7083 13.676 38.848 13.676 37.7756C13.676 34.7827 8.46378 36.8668 8.46378 33.5952C8.46378 32.3774 9.61601 31.4141 11.0699 31.4141C12.7409 31.4141 13.8569 32.3107 13.9535 33.8193H13.6277C13.5613 32.6803 12.7228 31.7352 11.0699 31.7352C9.80905 31.7352 8.78351 32.5652 8.78351 33.5891C8.78351 36.5033 13.9836 34.3707 13.9836 37.7695C13.9836 39.0721 12.8676 40.0294 11.3775 40.0294V40.0355Z" fill="white" stroke="white" stroke-width="0.5" stroke-miterlimit="10"/>
<path d="M21.066 35.9823C21.066 38.7632 21.6994 39.7083 23.5575 39.7083V40.0355C21.5003 40.0355 20.7402 38.9147 20.7402 35.9823V31.9836H18.6831V31.6565H20.7402V29.8389H21.066V31.6625H23.5575V31.9897H21.066V35.9884V35.9823Z" fill="white" stroke="white" stroke-width="0.5" stroke-miterlimit="10"/>
<path d="M35.3691 31.6562H35.6949V39.7869H35.4536L35.3872 37.7027C34.8503 39.1205 33.7222 40.0292 32.2925 40.0292C30.2836 40.0292 28.9082 38.3025 28.9082 35.8185V31.6562H29.234V35.8185C29.234 38.1268 30.4646 39.7081 32.2925 39.7081C34.1204 39.7081 35.3691 38.1147 35.3691 35.8185V31.6562Z" fill="white" stroke="white" stroke-width="0.5" stroke-miterlimit="10"/>
<path d="M47.9171 39.7931L47.8387 37.6484C47.2898 39.1267 46.0893 40.0415 44.6475 40.0415C42.5904 40.0415 41.0339 38.2058 41.0339 35.746C41.0339 33.2862 42.5904 31.4201 44.6475 31.4201C46.0893 31.4201 47.2898 32.3289 47.8387 33.8133V28.415H48.1645V39.7992H47.9232L47.9171 39.7931ZM44.6475 39.7144C46.5236 39.7144 47.8387 38.0725 47.8387 35.746C47.8387 33.4195 46.5115 31.7473 44.6475 31.7473C42.7834 31.7473 41.3597 33.4376 41.3597 35.746C41.3597 38.0543 42.7713 39.7144 44.6475 39.7144Z" fill="white" stroke="white" stroke-width="0.5" stroke-miterlimit="10"/>
<path d="M54.4926 28.1606C54.7038 28.1606 54.8304 28.3061 54.8304 28.4999C54.8304 28.712 54.7038 28.8392 54.4926 28.8392C54.2815 28.8392 54.1548 28.712 54.1548 28.4999C54.1548 28.3061 54.2815 28.1606 54.4926 28.1606ZM54.3297 39.7932V31.6625H54.6555V39.7932H54.3297Z" fill="white" stroke="white" stroke-width="0.5" stroke-miterlimit="10"/>
<path d="M63.8553 31.4141C66.027 31.4141 67.5653 33.2014 67.5653 35.7399C67.5653 38.2785 66.027 40.0355 63.8553 40.0355C61.6835 40.0355 60.1814 38.1997 60.1814 35.7399C60.1814 33.2801 61.7378 31.4141 63.8553 31.4141ZM63.8553 39.7083C65.8641 39.7083 67.2395 38.0846 67.2395 35.7399C67.2395 33.3952 65.846 31.7412 63.8553 31.7412C61.8645 31.7412 60.5011 33.4498 60.5011 35.7399C60.5011 38.0301 61.9429 39.7083 63.8553 39.7083Z" fill="white" stroke="white" stroke-width="0.5" stroke-miterlimit="10"/>
</svg>
